{
  "accessors": [
    {
      "bufferView": 2,
      "componentType": 5126,
      "count": 65532,
      "max": [
        1.2500100135803223,
        0.03391258046030998,
        1.3003259897232056
      ],
      "min": [
        -2.238348960876465,
        -6.317185878753662,
        -2.2828269004821777
      ],
      "type": "VEC3"
    },
    {
      "bufferView": 2,
      "byteOffset": 786384,
      "componentType": 5126,
      "count": 65532,
      "max": [
        0.9999963641166687,
        0.9999510645866394,
        0.9999589920043945
      ],
      "min": [
        -0.9999626278877258,
        -0.999998927116394,
        -0.9999832510948181
      ],
      "type": "VEC3"
    },
    {
      "bufferView": 1,
      "componentType": 5126,
      "count": 65532,
      "max": [
        0.9921770095825195,
        0.999983012676239
      ],
      "min": [
        2.4000000848900527e-05,
        0.0011241789907217026
      ],
      "type": "VEC2"
    },
    {
      "bufferView": 0,
      "componentType": 5125,
      "count": 309147,
      "type": "SCALAR"
    },
    {
      "bufferView": 2,
      "byteOffset": 1572768,
      "componentType": 5126,
      "count": 65532,
      "max": [
        1.253147006034851,
        0.15046660602092743,
        1.268211007118225
      ],
      "min": [
        -2.311924934387207,
        -6.302285194396973,
        -2.299926996231079
      ],
      "type": "VEC3"
    },
    {
      "bufferView": 2,
      "byteOffset": 2359152,
      "componentType": 5126,
      "count": 65532,
      "max": [
        0.9999995827674866,
        0.9995443224906921,
        0.9999520778656006
      ],
      "min": [
        -0.999859631061554,
        -0.9999285340309143,
        -0.9999929666519165
      ],
      "type": "VEC3"
    },
    {
      "bufferView": 1,
      "byteOffset": 524256,
      "componentType": 5126,
      "count": 65532,
      "max": [
        0.9950760006904602,
        0.9969589710235596
      ],
      "min": [
        0.007036999799311161,
        7.999999979801942e-06
      ],
      "type": "VEC2"
    },
    {
      "bufferView": 0,
      "byteOffset": 1236588,
      "componentType": 5125,
      "count": 308826,
      "type": "SCALAR"
    },
    {
      "bufferView": 2,
      "byteOffset": 3145536,
      "componentType": 5126,
      "count": 65532,
      "max": [
        1.2540340423583984,
        0.16521139442920685,
        1.2988929748535156
      ],
      "min": [
        -2.287532091140747,
        -6.316120147705078,
        -2.2974820137023926
      ],
      "type": "VEC3"
    },
    {
      "bufferView": 2,
      "byteOffset": 3931920,
      "componentType": 5126,
      "count": 65532,
      "max": [
        0.9999962449073792,
        0.9995443224906921,
        0.999989926815033
      ],
      "min": [
        -0.9999247193336487,
        -0.9998974204063416,
        -0.9998995661735535
      ],
      "type": "VEC3"
    },
    {
      "bufferView": 1,
      "byteOffset": 1048512,
      "componentType": 5126,
      "count": 65532,
      "max": [
        0.9970290064811707,
        0.9999909996986389
      ],
      "min": [
        0.0012390000047162175,
        0.007116999942809343
      ],
      "type": "VEC2"
    },
    {
      "bufferView": 0,
      "byteOffset": 2471892,
      "componentType": 5125,
      "count": 309543,
      "type": "SCALAR"
    },
    {
      "bufferView": 2,
      "byteOffset": 4718304,
      "componentType": 5126,
      "count": 65532,
      "max": [
        1.255139946937561,
        0.12743200361728668,
        1.2969119548797607
      ],
      "min": [
        -2.2511250972747803,
        -6.332314968109131,
        -2.300278902053833
      ],
      "type": "VEC3"
    },
    {
      "bufferView": 2,
      "byteOffset": 5504688,
      "componentType": 5126,
      "count": 65532,
      "max": [
        0.9999925494194031,
        0.9998096823692322,
        0.999989926815033
      ],
      "min": [
        -0.9999996423721313,
        -0.9999793767929077,
        -0.9999990463256836
      ],
      "type": "VEC3"
    },
    {
      "bufferView": 1,
      "byteOffset": 1572768,
      "componentType": 5126,
      "count": 65532,
      "max": [
        0.9970380067825317,
        0.999921977519989
      ],
      "min": [
        0.0003169999981764704,
        0.00343999988399446
      ],
      "type": "VEC2"
    },
    {
      "bufferView": 0,
      "byteOffset": 3710064,
      "componentType": 5125,
      "count": 296016,
      "type": "SCALAR"
    },
    {
      "bufferView": 2,
      "byteOffset": 6291072,
      "componentType": 5126,
      "count": 65534,
      "max": [
        1.255139946937561,
        0.1468770056962967,
        1.2978719472885132
      ],
      "min": [
        -2.2965729236602783,
        -6.332601070404053,
        -2.296518087387085
      ],
      "type": "VEC3"
    },
    {
      "bufferView": 2,
      "byteOffset": 7077480,
      "componentType": 5126,
      "count": 65534,
      "max": [
        0.9999746084213257,
        0.9999510645866394,
        0.9999690055847168
      ],
      "min": [
        -0.9999996423721313,
        -0.9999664425849915,
        -0.9999676942825317
      ],
      "type": "VEC3"
    },
    {
      "bufferView": 1,
      "byteOffset": 2097024,
      "componentType": 5126,
      "count": 65534,
      "max": [
        0.9970470070838928,
        0.9998869895935059
      ],
      "min": [
        0.0007510000141337514,
        0.0001230000052601099
      ],
      "type": "VEC2"
    },
    {
      "bufferView": 0,
      "byteOffset": 4894128,
      "componentType": 5125,
      "count": 230466,
      "type": "SCALAR"
    },
    {
      "bufferView": 2,
      "byteOffset": 7863888,
      "componentType": 5126,
      "count": 27197,
      "max": [
        1.2517420053482056,
        0.14943429827690125,
        1.2973259687423706
      ],
      "min": [
        -2.293505907058716,
        -6.3213019371032715,
        -2.2961668968200684
      ],
      "type": "VEC3"
    },
    {
      "bufferView": 2,
      "byteOffset": 8190252,
      "componentType": 5126,
      "count": 27197,
      "max": [
        0.9999980330467224,
        1.0,
        1.0
      ],
      "min": [
        -1.0,
        -0.9999162554740906,
        -1.0
      ],
      "type": "VEC3"
    },
    {
      "bufferView": 1,
      "byteOffset": 2621296,
      "componentType": 5126,
      "count": 27197,
      "max": [
        0.9966149926185608,
        1.0
      ],
      "min": [
        0.0,
        0.0
      ],
      "type": "VEC2"
    },
    {
      "bufferView": 0,
      "byteOffset": 5815992,
      "componentType": 5125,
      "count": 45840,
      "type": "SCALAR"
    }
  ],
  "asset": {
    "extras": {
      "author": "Moshe Caine (https://sketchfab.com/mosheca)",
      "license": "CC-BY-4.0 (http://creativecommons.org/licenses/by/4.0/)",
      "source": "https://sketchfab.com/3d-models/artichoke-dcf889a3c32e46808523e8ef8e278090",
      "title": "Artichoke"
    },
    "generator": "Sketchfab-12.68.0",
    "version": "2.0"
  },
  "bufferViews": [
    {
      "buffer": 0,
      "byteLength": 5999352,
      "name": "floatBufferViews",
      "target": 34963
    },
    {
      "buffer": 0,
      "byteLength": 2838872,
      "byteOffset": 5999352,
      "byteStride": 8,
      "name": "floatBufferViews",
      "target": 34962
    },
    {
      "buffer": 0,
      "byteLength": 8516616,
      "byteOffset": 8838224,
      "byteStride": 12,
      "name": "floatBufferViews",
      "target": 34962
    }
  ],
  "buffers": [
    {
      "byteLength": 17354840,
      "uri": "scene.bin"
    }
  ],
  "images": [
    {
      "uri": "textures/artichoke_baseColor.jpeg"
    }
  ],
  "materials": [
    {
      "doubleSided": true,
      "name": "artichoke",
      "pbrMetallicRoughness": {
        "baseColorTexture": {
          "index": 0
        },
        "metallicFactor": 0.0
      }
    }
  ],
  "meshes": [
    {
      "name": "Object_0",
      "primitives": [
        {
          "attributes": {
            "NORMAL": 1,
            "POSITION": 0,
            "TEXCOORD_0": 2
          },
          "indices": 3,
          "material": 0,
          "mode": 4
        }
      ]
    },
    {
      "name": "Object_1",
      "primitives": [
        {
          "attributes": {
            "NORMAL": 5,
            "POSITION": 4,
            "TEXCOORD_0": 6
          },
          "indices": 7,
          "material": 0,
          "mode": 4
        }
      ]
    },
    {
      "name": "Object_2",
      "primitives": [
        {
          "attributes": {
            "NORMAL": 9,
            "POSITION": 8,
            "TEXCOORD_0": 10
          },
          "indices": 11,
          "material": 0,
          "mode": 4
        }
      ]
    },
    {
      "name": "Object_3",
      "primitives": [
        {
          "attributes": {
            "NORMAL": 13,
            "POSITION": 12,
            "TEXCOORD_0": 14
          },
          "indices": 15,
          "material": 0,
          "mode": 4
        }
      ]
    },
    {
      "name": "Object_4",
      "primitives": [
        {
          "attributes": {
            "NORMAL": 17,
            "POSITION": 16,
            "TEXCOORD_0": 18
          },
          "indices": 19,
          "material": 0,
          "mode": 4
        }
      ]
    },
    {
      "name": "Object_5",
      "primitives": [
        {
          "attributes": {
            "NORMAL": 21,
            "POSITION": 20,
            "TEXCOORD_0": 22
          },
          "indices": 23,
          "material": 0,
          "mode": 4
        }
      ]
    }
  ],
  "nodes": [
    {
      "children": [
        1
      ],
      "matrix": [
        1.0,
        0.0,
        0.0,
        0.0,
        0.0,
        -1.0,
        -4.440892098500626e-16,
        0.0,
        0.0,
        4.440892098500626e-16,
        -1.0,
        0.0,
        0.0,
        -3.583668470382691,
        2.583716630935668,
        1.0
      ],
      "name": "Sketchfab_model"
    },
    {
      "children": [
        2,
        3,
        4,
        5,
        6,
        7
      ],
      "name": "artichoke.obj.cleaner.materialmerger.gles"
    },
    {
      "mesh": 0,
      "name": "Object_2"
    },
    {
      "mesh": 1,
      "name": "Object_3"
    },
    {
      "mesh": 2,
      "name": "Object_4"
    },
    {
      "mesh": 3,
      "name": "Object_5"
    },
    {
      "mesh": 4,
      "name": "Object_6"
    },
    {
      "mesh": 5,
      "name": "Object_7"
    }
  ],
  "samplers": [
    {
      "magFilter": 9729,
      "minFilter": 9987,
      "wrapS": 10497,
      "wrapT": 10497
    }
  ],
  "scene": 0,
  "scenes": [
    {
      "name": "Sketchfab_Scene",
      "nodes": [
        0
      ]
    }
  ],
  "textures": [
    {
      "sampler": 0,
      "source": 0
    }
  ]
}
