{
  "accessors": [
    {
      "bufferView": 2,
      "componentType": 5126,
      "count": 14212,
      "max": [
        0.06718482077121735,
        0.0575341172516346,
        0.4142357110977173
      ],
      "min": [
        -0.06718482077121735,
        -0.0575341172516346,
        -0.4142357110977173
      ],
      "type": "VEC3"
    },
    {
      "bufferView": 2,
      "byteOffset": 170544,
      "componentType": 5126,
      "count": 14212,
      "max": [
        0.9995938539505005,
        0.9999940395355225,
        0.99867182970047
      ],
      "min": [
        -0.9999117851257324,
        -0.9999989867210388,
        -0.9997528791427612
      ],
      "type": "VEC3"
    },
    {
      "bufferView": 1,
      "componentType": 5126,
      "count": 14212,
      "max": [
        0.9941666722297668,
        0.9999858140945435
      ],
      "min": [
        7.0776277425466105e-06,
        0.00019976643670815974
      ],
      "type": "VEC2"
    },
    {
      "bufferView": 1,
      "byteOffset": 113696,
      "componentType": 5126,
      "count": 14212,
      "max": [
        0.9941666722297668,
        0.9999858140945435
      ],
      "min": [
        7.0776277425466105e-06,
        0.00019976643670815974
      ],
      "type": "VEC2"
    },
    {
      "bufferView": 1,
      "byteOffset": 227392,
      "componentType": 5126,
      "count": 14212,
      "max": [
        0.9941666722297668,
        0.9999858140945435
      ],
      "min": [
        7.0776277425466105e-06,
        0.00019976643670815974
      ],
      "type": "VEC2"
    },
    {
      "bufferView": 1,
      "byteOffset": 341088,
      "componentType": 5126,
      "count": 14212,
      "max": [
        0.9941666722297668,
        0.9999858140945435
      ],
      "min": [
        7.0776277425466105e-06,
        0.00019976643670815974
      ],
      "type": "VEC2"
    },
    {
      "bufferView": 1,
      "byteOffset": 454784,
      "componentType": 5126,
      "count": 14212,
      "max": [
        0.9941666722297668,
        0.9999858140945435
      ],
      "min": [
        7.0776277425466105e-06,
        0.00019976643670815974
      ],
      "type": "VEC2"
    },
    {
      "bufferView": 0,
      "componentType": 5125,
      "count": 79404,
      "type": "SCALAR"
    }
  ],
  "asset": {
    "extras": {
      "author": "Haireena (https://sketchfab.com/haireena)",
      "license": "CC-BY-NC-SA-4.0 (http://creativecommons.org/licenses/by-nc-sa/4.0/)",
      "source": "https://sketchfab.com/3d-models/cinnamon-stick-58a41ea6266c4d32a283dacf0c159ad8",
      "title": "Cinnamon Stick"
    },
    "generator": "Sketchfab-15.27.0",
    "version": "2.0"
  },
  "bufferViews": [
    {
      "buffer": 0,
      "byteLength": 317616,
      "name": "floatBufferViews",
      "target": 34963
    },
    {
      "buffer": 0,
      "byteLength": 568480,
      "byteOffset": 317616,
      "byteStride": 8,
      "name": "floatBufferViews",
      "target": 34962
    },
    {
      "buffer": 0,
      "byteLength": 341088,
      "byteOffset": 886096,
      "byteStride": 12,
      "name": "floatBufferViews",
      "target": 34962
    }
  ],
  "buffers": [
    {
      "byteLength": 1227184,
      "uri": "scene.bin"
    }
  ],
  "extensionsUsed": [
    "KHR_materials_unlit"
  ],
  "images": [
    {
      "uri": "textures/material_0_baseColor.jpeg"
    }
  ],
  "materials": [
    {
      "extensions": {
        "KHR_materials_unlit": {}
      },
      "name": "material_0",
      "pbrMetallicRoughness": {
        "baseColorTexture": {
          "index": 0
        },
        "metallicFactor": 0.0
      }
    }
  ],
  "meshes": [
    {
      "name": "Object_0",
      "primitives": [
        {
          "attributes": {
            "NORMAL": 1,
            "POSITION": 0,
            "TEXCOORD_0": 2,
            "TEXCOORD_1": 3,
            "TEXCOORD_2": 4,
            "TEXCOORD_3": 5,
            "TEXCOORD_4": 6
          },
          "indices": 7,
          "material": 0,
          "mode": 4
        }
      ]
    }
  ],
  "nodes": [
    {
      "children": [
        1
      ],
      "matrix": [
        -1.0,
        -2.8327693431939985e-16,
        -2.8327693431939995e-16,
        0.0,
        2.832769343193999e-16,
        7.273661441694625e-16,
        -1.0,
        0.0,
        2.832769343193999e-16,
        -1.0,
        -7.273661441694625e-16,
        0.0,
        0.0,
        0.0,
        0.0,
        1.0
      ],
      "name": "Sketchfab_model"
    },
    {
      "children": [
        2
      ],
      "name": "root"
    },
    {
      "children": [
        3
      ],
      "matrix": [
        1.0,
        0.0,
        0.0,
        0.0,
        0.0,
        2.220446049250313e-16,
        1.0,
        0.0,
        0.0,
        -1.0,
        2.220446049250313e-16,
        0.0,
        0.0,
        0.0,
        0.0,
        1.0
      ],
      "name": "GLTF_SceneRootNode"
    },
    {
      "children": [
        4
      ],
      "name": "_0"
    },
    {
      "mesh": 0,
      "name": "Object_4"
    }
  ],
  "samplers": [
    {
      "magFilter": 9729,
      "minFilter": 9987,
      "wrapS": 10497,
      "wrapT": 10497
    }
  ],
  "scene": 0,
  "scenes": [
    {
      "name": "Sketchfab_Scene",
      "nodes": [
        0
      ]
    }
  ],
  "textures": [
    {
      "sampler": 0,
      "source": 0
    }
  ]
}
