{
  "accessors": [
    {
      "bufferView": 2,
      "componentType": 5126,
      "count": 40513,
      "max": [
        2.3480000495910645,
        2.1438000202178955,
        1.8025999069213867
      ],
      "min": [
        0.0,
        0.0,
        0.0
      ],
      "type": "VEC3"
    },
    {
      "bufferView": 2,
      "byteOffset": 486156,
      "componentType": 5126,
      "count": 40513,
      "max": [
        0.9999973773956299,
        0.9998384118080139,
        0.9999173879623413
      ],
      "min": [
        -0.9998596906661987,
        -0.9997696280479431,
        -0.9997428059577942
      ],
      "type": "VEC3"
    },
    {
      "bufferView": 3,
      "componentType": 5126,
      "count": 40513,
      "max": [
        0.999987006187439,
        0.9999042749404907,
        0.9999999403953552,
        1.0
      ],
      "min": [
        -0.9999944567680359,
        -0.9999279379844666,
        -0.9999256730079651,
        -1.0
      ],
      "type": "VEC4"
    },
    {
      "bufferView": 1,
      "componentType": 5126,
      "count": 40513,
      "max": [
        0.9994999766349792,
        0.9918000102043152
      ],
      "min": [
        0.0005000000237487257,
        0.0005000000237487257
      ],
      "type": "VEC2"
    },
    {
      "bufferView": 0,
      "componentType": 5125,
      "count": 125790,
      "type": "SCALAR"
    }
  ],
  "asset": {
    "extras": {
      "author": "Mantas Talmantas (https://sketchfab.com/mantasT)",
      "license": "CC-BY-4.0 (http://creativecommons.org/licenses/by/4.0/)",
      "source": "https://sketchfab.com/3d-models/garlic-fccb65d701a54ba2b4874ab94c2be911",
      "title": "Garlic"
    },
    "generator": "Sketchfab-12.67.0",
    "version": "2.0"
  },
  "bufferViews": [
    {
      "buffer": 0,
      "byteLength": 503160,
      "name": "floatBufferViews",
      "target": 34963
    },
    {
      "buffer": 0,
      "byteLength": 324104,
      "byteOffset": 503160,
      "byteStride": 8,
      "name": "floatBufferViews",
      "target": 34962
    },
    {
      "buffer": 0,
      "byteLength": 972312,
      "byteOffset": 827264,
      "byteStride": 12,
      "name": "floatBufferViews",
      "target": 34962
    },
    {
      "buffer": 0,
      "byteLength": 648208,
      "byteOffset": 1799576,
      "byteStride": 16,
      "name": "floatBufferViews",
      "target": 34962
    }
  ],
  "buffers": [
    {
      "byteLength": 2447784,
      "uri": "scene.bin"
    }
  ],
  "images": [
    {
      "uri": "textures/wire_134006006_baseColor.jpeg"
    },
    {
      "uri": "textures/wire_134006006_normal.png"
    }
  ],
  "materials": [
    {
      "doubleSided": true,
      "name": "wire_134006006",
      "normalTexture": {
        "index": 1
      },
      "pbrMetallicRoughness": {
        "baseColorTexture": {
          "index": 0
        },
        "metallicFactor": 0.0,
        "roughnessFactor": 0.6
      }
    }
  ],
  "meshes": [
    {
      "name": "Object_0",
      "primitives": [
        {
          "attributes": {
            "NORMAL": 1,
            "POSITION": 0,
            "TANGENT": 2,
            "TEXCOORD_0": 3
          },
          "indices": 4,
          "material": 0,
          "mode": 4
        }
      ]
    }
  ],
  "nodes": [
    {
      "children": [
        1
      ],
      "matrix": [
        -0.5655911498851793,
        0.03758372244212005,
        8.345262801272579e-18,
        0.0,
        0.0,
        1.2586343142915427e-16,
        -0.5668385028839111,
        0.0,
        -0.03758372244212005,
        -0.5655911498851793,
        -1.255864634253488e-16,
        0.0,
        -0.07230765372514725,
        -0.35279911756515503,
        -7.833714067765452e-17,
        1.0
      ],
      "name": "Sketchfab_model"
    },
    {
      "children": [
        2
      ],
      "matrix": [
        1.0,
        0.0,
        0.0,
        0.0,
        0.0,
        1.0,
        0.0,
        0.0,
        0.0,
        0.0,
        1.0,
        0.0,
        -1.204300045967102,
        -1.0220999717712402,
        -1.0788999795913696,
        1.0
      ],
      "name": "cm.obj.cleaner.gles"
    },
    {
      "children": [
        3
      ],
      "name": "Object_2"
    },
    {
      "mesh": 0,
      "name": "Object_3"
    }
  ],
  "samplers": [
    {
      "magFilter": 9729,
      "minFilter": 9987,
      "wrapS": 10497,
      "wrapT": 10497
    }
  ],
  "scene": 0,
  "scenes": [
    {
      "name": "Sketchfab_Scene",
      "nodes": [
        0
      ]
    }
  ],
  "textures": [
    {
      "sampler": 0,
      "source": 0
    },
    {
      "sampler": 0,
      "source": 1
    }
  ]
}
