{
  "accessors": [
    {
      "bufferView": 2,
      "componentType": 5126,
      "count": 1316,
      "max": [
        2.3555498123168945,
        0.44369441270828247,
        0.6013800501823425
      ],
      "min": [
        -1.5473196506500244,
        -0.32801347970962524,
        -0.7506369948387146
      ],
      "type": "VEC3"
    },
    {
      "bufferView": 2,
      "byteOffset": 15792,
      "componentType": 5126,
      "count": 1316,
      "max": [
        0.9997433423995972,
        0.9981104731559753,
        0.9992275238037109
      ],
      "min": [
        -0.9984940886497498,
        -0.999967098236084,
        -0.9989953637123108
      ],
      "type": "VEC3"
    },
    {
      "bufferView": 1,
      "componentType": 5126,
      "count": 1316,
      "max": [
        0.9978296756744385,
        0.9810093641281128
      ],
      "min": [
        0.0,
        0.0
      ],
      "type": "VEC2"
    },
    {
      "bufferView": 1,
      "byteOffset": 10528,
      "componentType": 5126,
      "count": 1316,
      "max": [
        0.9978296756744385,
        0.9810093641281128
      ],
      "min": [
        0.0,
        0.0
      ],
      "type": "VEC2"
    },
    {
      "bufferView": 1,
      "byteOffset": 21056,
      "componentType": 5126,
      "count": 1316,
      "max": [
        0.9978296756744385,
        0.9810093641281128
      ],
      "min": [
        0.0,
        0.0
      ],
      "type": "VEC2"
    },
    {
      "bufferView": 0,
      "componentType": 5125,
      "count": 5088,
      "type": "SCALAR"
    },
    {
      "bufferView": 2,
      "byteOffset": 31584,
      "componentType": 5126,
      "count": 1267,
      "max": [
        2.5351829528808594,
        0.3732116222381592,
        0.42578864097595215
      ],
      "min": [
        -1.8653719425201416,
        -0.4124974310398102,
        -0.4034225344657898
      ],
      "type": "VEC3"
    },
    {
      "bufferView": 2,
      "byteOffset": 46788,
      "componentType": 5126,
      "count": 1267,
      "max": [
        1.0,
        0.9999947547912598,
        0.9999696612358093
      ],
      "min": [
        -1.0,
        -0.9999947547912598,
        -0.9999966621398926
      ],
      "type": "VEC3"
    },
    {
      "bufferView": 1,
      "byteOffset": 31584,
      "componentType": 5126,
      "count": 1267,
      "max": [
        0.9999999403953552,
        0.990817666053772
      ],
      "min": [
        0.0,
        0.0
      ],
      "type": "VEC2"
    },
    {
      "bufferView": 1,
      "byteOffset": 41720,
      "componentType": 5126,
      "count": 1267,
      "max": [
        0.9999999403953552,
        0.990817666053772
      ],
      "min": [
        0.0,
        0.0
      ],
      "type": "VEC2"
    },
    {
      "bufferView": 1,
      "byteOffset": 51856,
      "componentType": 5126,
      "count": 1267,
      "max": [
        0.9999999403953552,
        0.990817666053772
      ],
      "min": [
        0.0,
        0.0
      ],
      "type": "VEC2"
    },
    {
      "bufferView": 0,
      "byteOffset": 20352,
      "componentType": 5125,
      "count": 4944,
      "type": "SCALAR"
    }
  ],
  "asset": {
    "extras": {
      "author": "ReddenWang (https://sketchfab.com/areddenwang)",
      "license": "CC-BY-4.0 (http://creativecommons.org/licenses/by/4.0/)",
      "source": "https://sketchfab.com/3d-models/chili-pepper-9515e14adbe14c5397cbea0b77cbd7bb",
      "title": "Chili Pepper"
    },
    "generator": "Sketchfab-15.49.0",
    "version": "2.0"
  },
  "bufferViews": [
    {
      "buffer": 0,
      "byteLength": 40128,
      "name": "floatBufferViews",
      "target": 34963
    },
    {
      "buffer": 0,
      "byteLength": 61992,
      "byteOffset": 40128,
      "byteStride": 8,
      "name": "floatBufferViews",
      "target": 34962
    },
    {
      "buffer": 0,
      "byteLength": 61992,
      "byteOffset": 102120,
      "byteStride": 12,
      "name": "floatBufferViews",
      "target": 34962
    }
  ],
  "buffers": [
    {
      "byteLength": 164112,
      "uri": "scene.bin"
    }
  ],
  "images": [
    {
      "uri": "textures/Chili_pepper_baseColor.png"
    },
    {
      "uri": "textures/Chili_pepper_metallicRoughness.png"
    }
  ],
  "materials": [
    {
      "doubleSided": true,
      "name": "Chili_pepper",
      "pbrMetallicRoughness": {
        "baseColorTexture": {
          "index": 0
        },
        "metallicRoughnessTexture": {
          "index": 1
        }
      }
    }
  ],
  "meshes": [
    {
      "name": "Object_0",
      "primitives": [
        {
          "attributes": {
            "NORMAL": 1,
            "POSITION": 0,
            "TEXCOORD_0": 2,
            "TEXCOORD_1": 3,
            "TEXCOORD_2": 4
          },
          "indices": 5,
          "material": 0,
          "mode": 4
        }
      ]
    },
    {
      "name": "Object_1",
      "primitives": [
        {
          "attributes": {
            "NORMAL": 7,
            "POSITION": 6,
            "TEXCOORD_0": 8,
            "TEXCOORD_1": 9,
            "TEXCOORD_2": 10
          },
          "indices": 11,
          "material": 0,
          "mode": 4
        }
      ]
    }
  ],
  "nodes": [
    {
      "children": [
        1
      ],
      "matrix": [
        1.0,
        0.0,
        0.0,
        0.0,
        0.0,
        2.220446049250313e-16,
        -1.0,
        0.0,
        0.0,
        1.0,
        2.220446049250313e-16,
        0.0,
        0.0,
        0.0,
        0.0,
        1.0
      ],
      "name": "Sketchfab_model"
    },
    {
      "children": [
        2
      ],
      "name": "root"
    },
    {
      "children": [
        3,
        5
      ],
      "matrix": [
        1.0,
        0.0,
        0.0,
        0.0,
        0.0,
        2.220446049250313e-16,
        1.0,
        0.0,
        0.0,
        -1.0,
        2.220446049250313e-16,
        0.0,
        0.0,
        0.0,
        0.0,
        1.0
      ],
      "name": "GLTF_SceneRootNode"
    },
    {
      "children": [
        4
      ],
      "matrix": [
        0.13777174384393287,
        -0.6066292221273121,
        0.782955894964342,
        0.0,
        -0.8077078428796548,
        -0.5263329078904508,
        -0.26567218639194545,
        0.0,
        0.5732599647183609,
        -0.5957974965815097,
        -0.5624929829947296,
        0.0,
        -0.41794586181640625,
        0.6237244009971619,
        -0.28200340270996094,
        1.0
      ],
      "name": "Chili pepper1_1"
    },
    {
      "mesh": 0,
      "name": "Object_4"
    },
    {
      "children": [
        6
      ],
      "matrix": [
        -0.5107781399333509,
        -0.5291766985968057,
        0.6775527384849181,
        0.0,
        -0.7066619895590963,
        -0.1904234534424576,
        -0.6814453322838362,
        0.0,
        0.48962692356385606,
        -0.8268681454991683,
        -0.27668492130970956,
        0.0,
        0.656341552734375,
        0.17523443698883057,
        -0.23875045776367188,
        1.0
      ],
      "name": "Chili pepper2_2"
    },
    {
      "mesh": 1,
      "name": "Object_6"
    }
  ],
  "samplers": [
    {
      "magFilter": 9729,
      "minFilter": 9987,
      "wrapS": 10497,
      "wrapT": 10497
    }
  ],
  "scene": 0,
  "scenes": [
    {
      "name": "Sketchfab_Scene",
      "nodes": [
        0
      ]
    }
  ],
  "textures": [
    {
      "sampler": 0,
      "source": 0
    },
    {
      "sampler": 0,
      "source": 1
    }
  ]
}
