{
  "accessors": [
    {
      "bufferView": 2,
      "componentType": 5126,
      "count": 6814,
      "max": [
        2.3618953227996826,
        6.486910820007324,
        2.822650194168091
      ],
      "min": [
        -3.6487131118774414,
        -0.017921006307005882,
        -4.1029181480407715
      ],
      "type": "VEC3"
    },
    {
      "bufferView": 2,
      "byteOffset": 81768,
      "componentType": 5126,
      "count": 6814,
      "max": [
        0.9998384714126587,
        0.9992179870605469,
        0.9999446868896484
      ],
      "min": [
        -0.9997869729995728,
        -0.9997774362564087,
        -0.9999076128005981
      ],
      "type": "VEC3"
    },
    {
      "bufferView": 3,
      "componentType": 5126,
      "count": 6814,
      "max": [
        0.9999847412109375,
        0.9999170899391174,
        0.9999808669090271,
        1.0
      ],
      "min": [
        -0.9995402097702026,
        -0.9995458722114563,
        -0.9999733567237854,
        -1.0
      ],
      "type": "VEC4"
    },
    {
      "bufferView": 1,
      "componentType": 5126,
      "count": 6814,
      "max": [
        1.0,
        1.0
      ],
      "min": [
        0.0,
        0.0
      ],
      "type": "VEC2"
    },
    {
      "bufferView": 0,
      "componentType": 5125,
      "count": 26424,
      "type": "SCALAR"
    },
    {
      "bufferView": 2,
      "byteOffset": 163536,
      "componentType": 5126,
      "count": 1572,
      "max": [
        3.433807134628296,
        7.470695972442627,
        3.680194854736328
      ],
      "min": [
        -4.541281700134277,
        1.7360289096832275,
        -4.410899639129639
      ],
      "type": "VEC3"
    },
    {
      "bufferView": 2,
      "byteOffset": 182400,
      "componentType": 5126,
      "count": 1572,
      "max": [
        0.9812968969345093,
        0.9994587898254395,
        0.9854307174682617
      ],
      "min": [
        -0.9829572439193726,
        -0.9979721307754517,
        -0.9951682090759277
      ],
      "type": "VEC3"
    },
    {
      "bufferView": 1,
      "byteOffset": 54512,
      "componentType": 5126,
      "count": 1572,
      "max": [
        1.0015089511871338,
        1.0
      ],
      "min": [
        0.0,
        0.0
      ],
      "type": "VEC2"
    },
    {
      "bufferView": 0,
      "byteOffset": 105696,
      "componentType": 5125,
      "count": 2358,
      "type": "SCALAR"
    },
    {
      "bufferView": 2,
      "byteOffset": 201264,
      "componentType": 5126,
      "count": 1096,
      "max": [
        2.7304136753082275,
        6.80125093460083,
        3.0560598373413086
      ],
      "min": [
        -3.8706459999084473,
        2.2582881450653076,
        -3.7349319458007813
      ],
      "type": "VEC3"
    },
    {
      "bufferView": 2,
      "byteOffset": 214416,
      "componentType": 5126,
      "count": 1096,
      "max": [
        0.9937115907669067,
        0.9958258867263794,
        0.9977632761001587
      ],
      "min": [
        -0.9900965690612793,
        -0.9978004693984985,
        -0.9980279803276062
      ],
      "type": "VEC3"
    },
    {
      "bufferView": 1,
      "byteOffset": 67088,
      "componentType": 5126,
      "count": 1096,
      "max": [
        1.0015089511871338,
        1.0
      ],
      "min": [
        0.0,
        0.0
      ],
      "type": "VEC2"
    },
    {
      "bufferView": 0,
      "byteOffset": 115128,
      "componentType": 5125,
      "count": 1644,
      "type": "SCALAR"
    }
  ],
  "asset": {
    "extras": {
      "author": "rhcreations (https://sketchfab.com/rhcreations)",
      "license": "CC-BY-4.0 (http://creativecommons.org/licenses/by/4.0/)",
      "source": "https://sketchfab.com/3d-models/hawthorn-tree-32f484d39fe849f9b29f381f257ae25d",
      "title": "Hawthorn Tree"
    },
    "generator": "Sketchfab-13.38.0",
    "version": "2.0"
  },
  "bufferViews": [
    {
      "buffer": 0,
      "byteLength": 121704,
      "name": "floatBufferViews",
      "target": 34963
    },
    {
      "buffer": 0,
      "byteLength": 75856,
      "byteOffset": 121704,
      "byteStride": 8,
      "name": "floatBufferViews",
      "target": 34962
    },
    {
      "buffer": 0,
      "byteLength": 227568,
      "byteOffset": 197560,
      "byteStride": 12,
      "name": "floatBufferViews",
      "target": 34962
    },
    {
      "buffer": 0,
      "byteLength": 109024,
      "byteOffset": 425128,
      "byteStride": 16,
      "name": "floatBufferViews",
      "target": 34962
    }
  ],
  "buffers": [
    {
      "byteLength": 534152,
      "uri": "scene.bin"
    }
  ],
  "extensionsRequired": [
    "KHR_materials_pbrSpecularGlossiness"
  ],
  "extensionsUsed": [
    "KHR_materials_pbrSpecularGlossiness"
  ],
  "images": [
    {
      "uri": "textures/Hawthorn_Tree_Material_diffuse.png"
    },
    {
      "uri": "textures/Hawthorn_Tree_Material_specularGlossiness.png"
    },
    {
      "uri": "textures/Hawthorn_Tree_Material_normal.png"
    },
    {
      "uri": "textures/Buddleia_Shrub_Material_diffuse.png"
    }
  ],
  "materials": [
    {
      "doubleSided": true,
      "extensions": {
        "KHR_materials_pbrSpecularGlossiness": {
          "diffuseFactor": [
            0.43743052248590336,
            0.43743052248590336,
            0.43743052248590336,
            1.0
          ],
          "diffuseTexture": {
            "index": 0
          },
          "glossinessFactor": 1.0,
          "specularFactor": [
            1.0,
            1.0,
            1.0
          ],
          "specularGlossinessTexture": {
            "index": 1
          }
        }
      },
      "name": "Hawthorn_Tree_Material",
      "normalTexture": {
        "index": 2
      }
    },
    {
      "alphaMode": "BLEND",
      "doubleSided": true,
      "extensions": {
        "KHR_materials_pbrSpecularGlossiness": {
          "diffuseFactor": [
            1.0,
            1.0,
            1.0,
            1.0
          ],
          "diffuseTexture": {
            "index": 3
          },
          "glossinessFactor": 1.0,
          "specularFactor": [
            0.0,
            0.0,
            0.0
          ]
        }
      },
      "name": "Buddleia_Shrub_Material"
    },
    {
      "alphaMode": "BLEND",
      "doubleSided": true,
      "extensions": {
        "KHR_materials_pbrSpecularGlossiness": {
          "diffuseFactor": [
            1.0,
            1.0,
            1.0,
            0.0322027439
          ],
          "diffuseTexture": {
            "index": 3
          },
          "glossinessFactor": 1.0,
          "specularFactor": [
            1.0,
            1.0,
            1.0
          ]
        }
      },
      "name": "Buddleia_Shrub_Stalks_Material"
    }
  ],
  "meshes": [
    {
      "name": "Object_0",
      "primitives": [
        {
          "attributes": {
            "NORMAL": 1,
            "POSITION": 0,
            "TANGENT": 2,
            "TEXCOORD_0": 3
          },
          "indices": 4,
          "material": 0,
          "mode": 4
        }
      ]
    },
    {
      "name": "Object_1",
      "primitives": [
        {
          "attributes": {
            "NORMAL": 6,
            "POSITION": 5,
            "TEXCOORD_0": 7
          },
          "indices": 8,
          "material": 1,
          "mode": 4
        }
      ]
    },
    {
      "name": "Object_2",
      "primitives": [
        {
          "attributes": {
            "NORMAL": 10,
            "POSITION": 9,
            "TEXCOORD_0": 11
          },
          "indices": 12,
          "material": 2,
          "mode": 4
        }
      ]
    }
  ],
  "nodes": [
    {
      "children": [
        1
      ],
      "matrix": [
        1.0,
        0.0,
        0.0,
        0.0,
        0.0,
        2.220446049250313e-16,
        -1.0,
        0.0,
        0.0,
        1.0,
        2.220446049250313e-16,
        0.0,
        0.0,
        0.0,
        0.0,
        1.0
      ],
      "name": "Sketchfab_model"
    },
    {
      "children": [
        2
      ],
      "name": "root"
    },
    {
      "children": [
        3
      ],
      "matrix": [
        1.0,
        0.0,
        0.0,
        0.0,
        0.0,
        2.220446049250313e-16,
        1.0,
        0.0,
        0.0,
        -1.0,
        2.220446049250313e-16,
        0.0,
        0.0,
        0.0,
        0.0,
        1.0
      ],
      "name": "GLTF_SceneRootNode"
    },
    {
      "children": [
        4,
        5,
        6
      ],
      "name": "Hawthorn Tree_0"
    },
    {
      "mesh": 0,
      "name": "Object_4"
    },
    {
      "mesh": 1,
      "name": "Object_5"
    },
    {
      "mesh": 2,
      "name": "Object_6"
    }
  ],
  "samplers": [
    {
      "magFilter": 9729,
      "minFilter": 9987,
      "wrapS": 10497,
      "wrapT": 10497
    }
  ],
  "scene": 0,
  "scenes": [
    {
      "name": "Sketchfab_Scene",
      "nodes": [
        0
      ]
    }
  ],
  "textures": [
    {
      "sampler": 0,
      "source": 0
    },
    {
      "sampler": 0,
      "source": 1
    },
    {
      "sampler": 0,
      "source": 2
    },
    {
      "sampler": 0,
      "source": 3
    }
  ]
}
