{
  "accessors": [
    {
      "bufferView": 2,
      "componentType": 5126,
      "count": 24,
      "max": [
        1.0,
        1.0,
        1.0
      ],
      "min": [
        -1.0,
        -1.0,
        -1.0
      ],
      "type": "VEC3"
    },
    {
      "bufferView": 2,
      "byteOffset": 288,
      "componentType": 5126,
      "count": 24,
      "max": [
        1.0,
        1.0,
        1.0
      ],
      "min": [
        -1.0,
        -1.0,
        -1.0
      ],
      "type": "VEC3"
    },
    {
      "bufferView": 1,
      "componentType": 5126,
      "count": 24,
      "max": [
        0.7499567270278931,
        0.9999133944511414
      ],
      "min": [
        8.658754813950509e-05,
        8.660554885864258e-05
      ],
      "type": "VEC2"
    },
    {
      "bufferView": 0,
      "componentType": 5125,
      "count": 36,
      "type": "SCALAR"
    },
    {
      "bufferView": 2,
      "byteOffset": 576,
      "componentType": 5126,
      "count": 65532,
      "max": [
        5.883871078491211,
        2.543140411376953,
        2.518339157104492
      ],
      "min": [
        -4.601006031036377,
        -1.9728202819824219,
        -3.3830556869506836
      ],
      "type": "VEC3"
    },
    {
      "bufferView": 2,
      "byteOffset": 786960,
      "componentType": 5126,
      "count": 65532,
      "max": [
        1.0,
        1.0,
        1.0
      ],
      "min": [
        -1.0,
        -1.0,
        -1.0
      ],
      "type": "VEC3"
    },
    {
      "bufferView": 1,
      "byteOffset": 192,
      "componentType": 5126,
      "count": 65532,
      "max": [
        0.9997169971466064,
        0.9995579719543457
      ],
      "min": [
        0.0002519999979995191,
        0.00025397539138793945
      ],
      "type": "VEC2"
    },
    {
      "bufferView": 0,
      "byteOffset": 144,
      "componentType": 5125,
      "count": 273075,
      "type": "SCALAR"
    },
    {
      "bufferView": 2,
      "byteOffset": 1573344,
      "componentType": 5126,
      "count": 65532,
      "max": [
        5.883871078491211,
        2.6901168823242188,
        2.5184431076049805
      ],
      "min": [
        -4.598397254943848,
        -1.9692535400390625,
        -3.3830556869506836
      ],
      "type": "VEC3"
    },
    {
      "bufferView": 2,
      "byteOffset": 2359728,
      "componentType": 5126,
      "count": 65532,
      "max": [
        0.9990245699882507,
        0.9999890327453613,
        0.9999536275863647
      ],
      "min": [
        -0.9998650550842285,
        -0.9999802708625793,
        -0.99997878074646
      ],
      "type": "VEC3"
    },
    {
      "bufferView": 1,
      "byteOffset": 524448,
      "componentType": 5126,
      "count": 65532,
      "max": [
        0.9997450113296509,
        0.9996410012245178
      ],
      "min": [
        0.0002410000015515834,
        0.0002390146255493164
      ],
      "type": "VEC2"
    },
    {
      "bufferView": 0,
      "byteOffset": 1092444,
      "componentType": 5125,
      "count": 248091,
      "type": "SCALAR"
    },
    {
      "bufferView": 2,
      "byteOffset": 3146112,
      "componentType": 5126,
      "count": 65532,
      "max": [
        5.583622932434082,
        2.702871322631836,
        2.5184431076049805
      ],
      "min": [
        -4.598397254943848,
        -1.9693326950073242,
        -3.3617968559265137
      ],
      "type": "VEC3"
    },
    {
      "bufferView": 2,
      "byteOffset": 3932496,
      "componentType": 5126,
      "count": 65532,
      "max": [
        0.9999772310256958,
        0.9999923706054688,
        0.9999948143959045
      ],
      "min": [
        -0.9999448657035828,
        -0.9999915361404419,
        -0.9999557733535767
      ],
      "type": "VEC3"
    },
    {
      "bufferView": 1,
      "byteOffset": 1048704,
      "componentType": 5126,
      "count": 65532,
      "max": [
        0.9997339844703674,
        0.9996160268783569
      ],
      "min": [
        0.00024199999461416155,
        0.00026100873947143555
      ],
      "type": "VEC2"
    },
    {
      "bufferView": 0,
      "byteOffset": 2084808,
      "componentType": 5125,
      "count": 231708,
      "type": "SCALAR"
    },
    {
      "bufferView": 2,
      "byteOffset": 4718880,
      "componentType": 5126,
      "count": 65533,
      "max": [
        5.813769817352295,
        2.702871322631836,
        2.5137672424316406
      ],
      "min": [
        -4.586780071258545,
        -1.9620389938354492,
        -3.367475986480713
      ],
      "type": "VEC3"
    },
    {
      "bufferView": 2,
      "byteOffset": 5505276,
      "componentType": 5126,
      "count": 65533,
      "max": [
        0.9997199773788452,
        0.9999923706054688,
        0.999968945980072
      ],
      "min": [
        -0.9999382495880127,
        -0.9999715089797974,
        -0.9999701380729675
      ],
      "type": "VEC3"
    },
    {
      "bufferView": 1,
      "byteOffset": 1572960,
      "componentType": 5126,
      "count": 65533,
      "max": [
        0.9997490048408508,
        0.9996269941329956
      ],
      "min": [
        0.00023999999393709004,
        0.0002530217170715332
      ],
      "type": "VEC2"
    },
    {
      "bufferView": 0,
      "byteOffset": 3011640,
      "componentType": 5125,
      "count": 189486,
      "type": "SCALAR"
    },
    {
      "bufferView": 2,
      "byteOffset": 6291672,
      "componentType": 5126,
      "count": 65532,
      "max": [
        5.863565921783447,
        2.6539249420166016,
        2.5178542137145996
      ],
      "min": [
        -4.561224937438965,
        -1.972212791442871,
        -3.3830556869506836
      ],
      "type": "VEC3"
    },
    {
      "bufferView": 2,
      "byteOffset": 7078056,
      "componentType": 5126,
      "count": 65532,
      "max": [
        0.9999163150787354,
        0.9999420642852783,
        0.9999929070472717
      ],
      "min": [
        -0.999889075756073,
        -0.9999915361404419,
        -0.9999610781669617
      ],
      "type": "VEC3"
    },
    {
      "bufferView": 1,
      "byteOffset": 2097224,
      "componentType": 5126,
      "count": 65532,
      "max": [
        0.9997029900550842,
        0.9996269941329956
      ],
      "min": [
        0.0002410000015515834,
        0.00024300813674926758
      ],
      "type": "VEC2"
    },
    {
      "bufferView": 0,
      "byteOffset": 3769584,
      "componentType": 5125,
      "count": 145101,
      "type": "SCALAR"
    },
    {
      "bufferView": 2,
      "byteOffset": 7864440,
      "componentType": 5126,
      "count": 65534,
      "max": [
        5.883871078491211,
        2.702871322631836,
        2.6072511672973633
      ],
      "min": [
        -4.601006031036377,
        -1.9728202819824219,
        -3.3828887939453125
      ],
      "type": "VEC3"
    },
    {
      "bufferView": 2,
      "byteOffset": 8650848,
      "componentType": 5126,
      "count": 65534,
      "max": [
        1.0,
        1.0,
        1.0
      ],
      "min": [
        -1.0,
        -1.0,
        -1.0
      ],
      "type": "VEC3"
    },
    {
      "bufferView": 1,
      "byteOffset": 2621480,
      "componentType": 5126,
      "count": 65534,
      "max": [
        0.999754011631012,
        0.9996399879455566
      ],
      "min": [
        0.00024199999461416155,
        0.00025397539138793945
      ],
      "type": "VEC2"
    },
    {
      "bufferView": 0,
      "byteOffset": 4349988,
      "componentType": 5125,
      "count": 105879,
      "type": "SCALAR"
    },
    {
      "bufferView": 2,
      "byteOffset": 9437256,
      "componentType": 5126,
      "count": 18038,
      "max": [
        5.849487781524658,
        2.6819896697998047,
        2.518339157104492
      ],
      "min": [
        -4.579946994781494,
        -1.972212791442871,
        -3.3800048828125
      ],
      "type": "VEC3"
    },
    {
      "bufferView": 2,
      "byteOffset": 9653712,
      "componentType": 5126,
      "count": 18038,
      "max": [
        0.9998498558998108,
        0.9998907446861267,
        0.9999484419822693
      ],
      "min": [
        -0.9996821880340576,
        -0.9999915361404419,
        -0.9999947547912598
      ],
      "type": "VEC3"
    },
    {
      "bufferView": 1,
      "byteOffset": 3145752,
      "componentType": 5126,
      "count": 18038,
      "max": [
        0.9997569918632507,
        0.9996110200881958
      ],
      "min": [
        0.00026599998818710446,
        0.00024300813674926758
      ],
      "type": "VEC2"
    },
    {
      "bufferView": 0,
      "byteOffset": 4773504,
      "componentType": 5125,
      "count": 20685,
      "type": "SCALAR"
    }
  ],
  "asset": {
    "extras": {
      "author": "ffish.asia / floraZia.com (https://sketchfab.com/ffishAsia-and-floraZia)",
      "license": "CC-BY-NC-4.0 (http://creativecommons.org/licenses/by-nc/4.0/)",
      "source": "https://sketchfab.com/3d-models/chinese-milk-vetch-astragalus-sinicus-6f4360b31cfc4a04ac10b432919356de",
      "title": "ゲンゲ 🌸 Chinese Milk Vetch, Astragalus sinicus"
    },
    "generator": "Sketchfab-15.45.0",
    "version": "2.0"
  },
  "bufferViews": [
    {
      "buffer": 0,
      "byteLength": 4856244,
      "name": "floatBufferViews",
      "target": 34963
    },
    {
      "buffer": 0,
      "byteLength": 3290056,
      "byteOffset": 4856244,
      "byteStride": 8,
      "name": "floatBufferViews",
      "target": 34962
    },
    {
      "buffer": 0,
      "byteLength": 9870168,
      "byteOffset": 8146300,
      "byteStride": 12,
      "name": "floatBufferViews",
      "target": 34962
    }
  ],
  "buffers": [
    {
      "byteLength": 18016468,
      "uri": "scene.bin"
    }
  ],
  "extensionsUsed": [
    "KHR_materials_unlit"
  ],
  "images": [
    {
      "uri": "textures/Material.001_baseColor.jpeg"
    },
    {
      "uri": "textures/QS1387-W10-1-1_baseColor.jpeg"
    }
  ],
  "materials": [
    {
      "doubleSided": true,
      "extensions": {
        "KHR_materials_unlit": {}
      },
      "name": "Material.001",
      "pbrMetallicRoughness": {
        "baseColorTexture": {
          "index": 0
        },
        "metallicFactor": 0.0
      }
    },
    {
      "doubleSided": true,
      "extensions": {
        "KHR_materials_unlit": {}
      },
      "name": "QS1387-W10-1-1",
      "pbrMetallicRoughness": {
        "baseColorTexture": {
          "index": 1
        },
        "metallicFactor": 0.0
      }
    }
  ],
  "meshes": [
    {
      "name": "Object_0",
      "primitives": [
        {
          "attributes": {
            "NORMAL": 1,
            "POSITION": 0,
            "TEXCOORD_0": 2
          },
          "indices": 3,
          "material": 0,
          "mode": 4
        }
      ]
    },
    {
      "name": "Object_1",
      "primitives": [
        {
          "attributes": {
            "NORMAL": 5,
            "POSITION": 4,
            "TEXCOORD_0": 6
          },
          "indices": 7,
          "material": 1,
          "mode": 4
        }
      ]
    },
    {
      "name": "Object_2",
      "primitives": [
        {
          "attributes": {
            "NORMAL": 9,
            "POSITION": 8,
            "TEXCOORD_0": 10
          },
          "indices": 11,
          "material": 1,
          "mode": 4
        }
      ]
    },
    {
      "name": "Object_3",
      "primitives": [
        {
          "attributes": {
            "NORMAL": 13,
            "POSITION": 12,
            "TEXCOORD_0": 14
          },
          "indices": 15,
          "material": 1,
          "mode": 4
        }
      ]
    },
    {
      "name": "Object_4",
      "primitives": [
        {
          "attributes": {
            "NORMAL": 17,
            "POSITION": 16,
            "TEXCOORD_0": 18
          },
          "indices": 19,
          "material": 1,
          "mode": 4
        }
      ]
    },
    {
      "name": "Object_5",
      "primitives": [
        {
          "attributes": {
            "NORMAL": 21,
            "POSITION": 20,
            "TEXCOORD_0": 22
          },
          "indices": 23,
          "material": 1,
          "mode": 4
        }
      ]
    },
    {
      "name": "Object_6",
      "primitives": [
        {
          "attributes": {
            "NORMAL": 25,
            "POSITION": 24,
            "TEXCOORD_0": 26
          },
          "indices": 27,
          "material": 1,
          "mode": 4
        }
      ]
    },
    {
      "name": "Object_7",
      "primitives": [
        {
          "attributes": {
            "NORMAL": 29,
            "POSITION": 28,
            "TEXCOORD_0": 30
          },
          "indices": 31,
          "material": 1,
          "mode": 4
        }
      ]
    }
  ],
  "nodes": [
    {
      "children": [
        1
      ],
      "matrix": [
        1.0,
        0.0,
        0.0,
        0.0,
        0.0,
        2.220446049250313e-16,
        -1.0,
        0.0,
        0.0,
        1.0,
        2.220446049250313e-16,
        0.0,
        0.0,
        0.0,
        0.0,
        1.0
      ],
      "name": "Sketchfab_model"
    },
    {
      "children": [
        2
      ],
      "name": "root"
    },
    {
      "children": [
        3,
        5
      ],
      "matrix": [
        1.0,
        0.0,
        0.0,
        0.0,
        0.0,
        2.220446049250313e-16,
        1.0,
        0.0,
        0.0,
        -1.0,
        2.220446049250313e-16,
        0.0,
        0.0,
        0.0,
        0.0,
        1.0
      ],
      "name": "GLTF_SceneRootNode"
    },
    {
      "children": [
        4
      ],
      "matrix": [
        -8.984094858452088e-06,
        -0.004850226861942723,
        1.730000785928357e-05,
        0.0,
        2.2392525840395758e-05,
        -1.7341337047312798e-05,
        -0.004850185206568042,
        0.0,
        0.004850207421225165,
        -8.904074259054143e-06,
        2.2424464001209966e-05,
        0.0,
        0.09331949800252914,
        -1.7396756447851658e-05,
        -0.0004402188351377845,
        1.0
      ],
      "name": "Cube_0"
    },
    {
      "mesh": 0,
      "name": "Object_4"
    },
    {
      "children": [
        6,
        7,
        8,
        9,
        10,
        11,
        12
      ],
      "matrix": [
        -0.000520322577406611,
        -0.01824545162433371,
        -0.002427351855996561,
        0.0,
        -0.007189397744754675,
        -0.0020339596423011837,
        0.0168295824616797,
        0.0,
        -0.01694406144478392,
        0.0014232995505303503,
        -0.007066287209692351,
        0.0,
        -0.0061650350689888,
        0.017499227076768875,
        0.0,
        1.0
      ],
      "name": "QS1387-W10-1-1_1"
    },
    {
      "mesh": 1,
      "name": "Object_6"
    },
    {
      "mesh": 2,
      "name": "Object_7"
    },
    {
      "mesh": 3,
      "name": "Object_8"
    },
    {
      "mesh": 4,
      "name": "Object_9"
    },
    {
      "mesh": 5,
      "name": "Object_10"
    },
    {
      "mesh": 6,
      "name": "Object_11"
    },
    {
      "mesh": 7,
      "name": "Object_12"
    }
  ],
  "samplers": [
    {
      "magFilter": 9729,
      "minFilter": 9987,
      "wrapS": 10497,
      "wrapT": 10497
    }
  ],
  "scene": 0,
  "scenes": [
    {
      "name": "Sketchfab_Scene",
      "nodes": [
        0
      ]
    }
  ],
  "textures": [
    {
      "sampler": 0,
      "source": 0
    },
    {
      "sampler": 0,
      "source": 1
    }
  ]
}
