{
  "accessors": [
    {
      "bufferView": 2,
      "componentType": 5126,
      "count": 1714,
      "max": [
        0.08252227306365967,
        0.04233652353286743,
        0.04871669411659241
      ],
      "min": [
        -0.09211694449186325,
        0.0005377531051635742,
        -0.06072881817817688
      ],
      "type": "VEC3"
    },
    {
      "bufferView": 2,
      "byteOffset": 20568,
      "componentType": 5126,
      "count": 1714,
      "max": [
        0.9900128245353699,
        0.9996352195739746,
        0.9999704360961914
      ],
      "min": [
        -0.9880638122558594,
        -0.9998804330825806,
        -0.9969565868377686
      ],
      "type": "VEC3"
    },
    {
      "bufferView": 3,
      "componentType": 5126,
      "count": 1714,
      "max": [
        0.9973640441894531,
        0.9999639987945557,
        0.9981105923652649,
        1.0
      ],
      "min": [
        -0.9995336532592773,
        -0.9959743022918701,
        -0.9976372718811035,
        1.0
      ],
      "type": "VEC4"
    },
    {
      "bufferView": 1,
      "componentType": 5126,
      "count": 1714,
      "max": [
        1.0,
        0.9902545213699341
      ],
      "min": [
        0.0,
        0.0
      ],
      "type": "VEC2"
    },
    {
      "bufferView": 0,
      "componentType": 5125,
      "count": 6348,
      "type": "SCALAR"
    }
  ],
  "asset": {
    "extras": {
      "author": "Paweł Somogyi (https://sketchfab.com/Papheoo)",
      "license": "CC-BY-4.0 (http://creativecommons.org/licenses/by/4.0/)",
      "source": "https://sketchfab.com/3d-models/ginger-root-14d7deb215f84f6ea2c10a9da12e60fd",
      "title": "Ginger Root"
    },
    "generator": "Sketchfab-12.68.0",
    "version": "2.0"
  },
  "bufferViews": [
    {
      "buffer": 0,
      "byteLength": 25392,
      "name": "floatBufferViews",
      "target": 34963
    },
    {
      "buffer": 0,
      "byteLength": 13712,
      "byteOffset": 25392,
      "byteStride": 8,
      "name": "floatBufferViews",
      "target": 34962
    },
    {
      "buffer": 0,
      "byteLength": 41136,
      "byteOffset": 39104,
      "byteStride": 12,
      "name": "floatBufferViews",
      "target": 34962
    },
    {
      "buffer": 0,
      "byteLength": 27424,
      "byteOffset": 80240,
      "byteStride": 16,
      "name": "floatBufferViews",
      "target": 34962
    }
  ],
  "buffers": [
    {
      "byteLength": 107664,
      "uri": "scene.bin"
    }
  ],
  "images": [
    {
      "uri": "textures/Ginger2k_baseColor.png"
    },
    {
      "uri": "textures/Ginger2k_metallicRoughness.png"
    },
    {
      "uri": "textures/Ginger2k_normal.png"
    }
  ],
  "materials": [
    {
      "doubleSided": true,
      "name": "Ginger2k",
      "normalTexture": {
        "index": 2
      },
      "pbrMetallicRoughness": {
        "baseColorTexture": {
          "index": 0
        },
        "metallicFactor": 0.0,
        "metallicRoughnessTexture": {
          "index": 1
        }
      }
    }
  ],
  "meshes": [
    {
      "name": "Object_0",
      "primitives": [
        {
          "attributes": {
            "NORMAL": 1,
            "POSITION": 0,
            "TANGENT": 2,
            "TEXCOORD_0": 3
          },
          "indices": 4,
          "material": 0,
          "mode": 4
        }
      ]
    }
  ],
  "nodes": [
    {
      "children": [
        1
      ],
      "matrix": [
        1.0,
        0.0,
        0.0,
        0.0,
        0.0,
        2.220446049250313e-16,
        -1.0,
        0.0,
        0.0,
        1.0,
        2.220446049250313e-16,
        0.0,
        0.0,
        0.0,
        0.0,
        1.0
      ],
      "name": "Sketchfab_model"
    },
    {
      "children": [
        2
      ],
      "name": "root"
    },
    {
      "children": [
        3
      ],
      "matrix": [
        1.0,
        0.0,
        0.0,
        0.0,
        0.0,
        2.220446049250313e-16,
        1.0,
        0.0,
        0.0,
        -1.0,
        2.220446049250313e-16,
        0.0,
        0.0,
        0.0,
        0.0,
        1.0
      ],
      "name": "GLTF_SceneRootNode"
    },
    {
      "children": [
        4
      ],
      "name": "GingerLowPoly_0"
    },
    {
      "mesh": 0,
      "name": "Object_4"
    }
  ],
  "samplers": [
    {
      "magFilter": 9729,
      "minFilter": 9987,
      "wrapS": 10497,
      "wrapT": 10497
    }
  ],
  "scene": 0,
  "scenes": [
    {
      "name": "Sketchfab_Scene",
      "nodes": [
        0
      ]
    }
  ],
  "textures": [
    {
      "sampler": 0,
      "source": 0
    },
    {
      "sampler": 0,
      "source": 1
    },
    {
      "sampler": 0,
      "source": 2
    }
  ]
}
