{
  "accessors": [
    {
      "bufferView": 2,
      "componentType": 5126,
      "count": 24,
      "max": [
        0.9919099807739258,
        0.044199999421834946,
        5.4902801513671875
      ],
      "min": [
        -1.0080900192260742,
        -1.8579699993133545,
        -0.01078999973833561
      ],
      "type": "VEC3"
    },
    {
      "bufferView": 2,
      "byteOffset": 288,
      "componentType": 5126,
      "count": 24,
      "max": [
        0.5855427980422974,
        0.46447497606277466,
        0.6764918565750122
      ],
      "min": [
        -0.5808988213539124,
        -0.9568058252334595,
        0.1290014535188675
      ],
      "type": "VEC3"
    },
    {
      "bufferView": 1,
      "componentType": 5126,
      "count": 24,
      "max": [
        0.9102500081062317,
        0.9364399909973145
      ],
      "min": [
        0.07528000324964523,
        0.06356000155210495
      ],
      "type": "VEC2"
    },
    {
      "bufferView": 0,
      "componentType": 5125,
      "count": 108,
      "type": "SCALAR"
    },
    {
      "bufferView": 2,
      "byteOffset": 576,
      "componentType": 5126,
      "count": 128,
      "max": [
        3.9395101070404053,
        2.7296900749206543,
        1.1469099521636963
      ],
      "min": [
        -3.6663100719451904,
        -3.1910600662231445,
        -0.14756999909877777
      ],
      "type": "VEC3"
    },
    {
      "bufferView": 2,
      "byteOffset": 2112,
      "componentType": 5126,
      "count": 128,
      "max": [
        0.5435305237770081,
        0.4058007001876831,
        0.9949861764907837
      ],
      "min": [
        -0.44154882431030273,
        -0.7421620488166809,
        0.6700318455696106
      ],
      "type": "VEC3"
    },
    {
      "bufferView": 1,
      "byteOffset": 192,
      "componentType": 5126,
      "count": 128,
      "max": [
        1.0,
        1.0
      ],
      "min": [
        0.0,
        0.0
      ],
      "type": "VEC2"
    },
    {
      "bufferView": 0,
      "byteOffset": 432,
      "componentType": 5125,
      "count": 192,
      "type": "SCALAR"
    },
    {
      "bufferView": 2,
      "byteOffset": 3648,
      "componentType": 5126,
      "count": 44,
      "max": [
        0.04422999918460846,
        0.044199999421834946,
        4.456319808959961
      ],
      "min": [
        -0.03392999991774559,
        -1.1362500190734863,
        -0.01078999973833561
      ],
      "type": "VEC3"
    },
    {
      "bufferView": 2,
      "byteOffset": 4176,
      "componentType": 5126,
      "count": 44,
      "max": [
        0.7566328644752502,
        0.6732415556907654,
        0.6764918565750122
      ],
      "min": [
        -0.7591311931610107,
        -0.9568058252334595,
        -0.48697027564048767
      ],
      "type": "VEC3"
    },
    {
      "bufferView": 1,
      "byteOffset": 1216,
      "componentType": 5126,
      "count": 44,
      "max": [
        0.6632800102233887,
        0.4369400143623352
      ],
      "min": [
        0.4876999855041504,
        0.36737000942230225
      ],
      "type": "VEC2"
    },
    {
      "bufferView": 0,
      "byteOffset": 1200,
      "componentType": 5125,
      "count": 96,
      "type": "SCALAR"
    }
  ],
  "asset": {
    "extras": {
      "author": "rhcreations (https://sketchfab.com/rhcreations)",
      "license": "CC-BY-4.0 (http://creativecommons.org/licenses/by/4.0/)",
      "source": "https://sketchfab.com/3d-models/dandelion-ee5c813c43e14de987cc14307184f683",
      "title": "Dandelion"
    },
    "generator": "Sketchfab-12.62.1",
    "version": "2.0"
  },
  "bufferViews": [
    {
      "buffer": 0,
      "byteLength": 1584,
      "name": "floatBufferViews",
      "target": 34963
    },
    {
      "buffer": 0,
      "byteLength": 1568,
      "byteOffset": 1584,
      "byteStride": 8,
      "name": "floatBufferViews",
      "target": 34962
    },
    {
      "buffer": 0,
      "byteLength": 4704,
      "byteOffset": 3152,
      "byteStride": 12,
      "name": "floatBufferViews",
      "target": 34962
    }
  ],
  "buffers": [
    {
      "byteLength": 7856,
      "uri": "scene.bin"
    }
  ],
  "extensionsRequired": [
    "KHR_materials_pbrSpecularGlossiness"
  ],
  "extensionsUsed": [
    "KHR_materials_pbrSpecularGlossiness"
  ],
  "images": [
    {
      "uri": "textures/Dandilion_Head_Material_diffuse.png"
    },
    {
      "uri": "textures/Leaf_Material_diffuse.png"
    },
    {
      "uri": "textures/Stalk_Material_diffuse.png"
    }
  ],
  "materials": [
    {
      "alphaMode": "BLEND",
      "doubleSided": true,
      "extensions": {
        "KHR_materials_pbrSpecularGlossiness": {
          "diffuseFactor": [
            1.0,
            1.0,
            1.0,
            1.0
          ],
          "diffuseTexture": {
            "index": 0
          },
          "glossinessFactor": 1.0,
          "specularFactor": [
            0.0,
            0.0,
            0.0
          ]
        }
      },
      "name": "Dandilion_Head_Material"
    },
    {
      "alphaMode": "BLEND",
      "doubleSided": true,
      "extensions": {
        "KHR_materials_pbrSpecularGlossiness": {
          "diffuseFactor": [
            1.0,
            1.0,
            1.0,
            1.0
          ],
          "diffuseTexture": {
            "index": 1
          },
          "glossinessFactor": 1.0,
          "specularFactor": [
            0.0,
            0.0,
            0.0
          ]
        }
      },
      "name": "Leaf_Material"
    },
    {
      "doubleSided": true,
      "extensions": {
        "KHR_materials_pbrSpecularGlossiness": {
          "diffuseFactor": [
            1.0,
            1.0,
            1.0,
            1.0
          ],
          "diffuseTexture": {
            "index": 2
          },
          "glossinessFactor": 1.0,
          "specularFactor": [
            0.0,
            0.0,
            0.0
          ]
        }
      },
      "name": "Stalk_Material"
    }
  ],
  "meshes": [
    {
      "name": "Dandelion_0",
      "primitives": [
        {
          "attributes": {
            "NORMAL": 1,
            "POSITION": 0,
            "TEXCOORD_0": 2
          },
          "indices": 3,
          "material": 0,
          "mode": 4
        }
      ]
    },
    {
      "name": "Dandelion_1",
      "primitives": [
        {
          "attributes": {
            "NORMAL": 5,
            "POSITION": 4,
            "TEXCOORD_0": 6
          },
          "indices": 7,
          "material": 1,
          "mode": 4
        }
      ]
    },
    {
      "name": "Dandelion_2",
      "primitives": [
        {
          "attributes": {
            "NORMAL": 9,
            "POSITION": 8,
            "TEXCOORD_0": 10
          },
          "indices": 11,
          "material": 2,
          "mode": 4
        }
      ]
    }
  ],
  "nodes": [
    {
      "children": [
        1
      ],
      "matrix": [
        1.0,
        0.0,
        0.0,
        0.0,
        0.0,
        2.220446049250313e-16,
        -1.0,
        0.0,
        0.0,
        1.0,
        2.220446049250313e-16,
        0.0,
        0.0,
        0.0,
        0.0,
        1.0
      ],
      "name": "Sketchfab_model"
    },
    {
      "children": [
        2
      ],
      "name": "Root"
    },
    {
      "children": [
        3,
        4,
        5
      ],
      "matrix": [
        3.06866,
        0.24953000000000003,
        0.0,
        0.0,
        -0.24953000000000003,
        3.06866,
        0.0,
        0.0,
        0.0,
        0.0,
        3.07878,
        0.0,
        0.0,
        0.0,
        0.0,
        1.0
      ],
      "name": "Dandelion"
    },
    {
      "mesh": 0,
      "name": "Dandelion_0"
    },
    {
      "mesh": 1,
      "name": "Dandelion_1"
    },
    {
      "mesh": 2,
      "name": "Dandelion_2"
    }
  ],
  "samplers": [
    {
      "magFilter": 9729,
      "minFilter": 9987,
      "wrapS": 10497,
      "wrapT": 10497
    }
  ],
  "scene": 0,
  "scenes": [
    {
      "name": "Sketchfab_Scene",
      "nodes": [
        0
      ]
    }
  ],
  "textures": [
    {
      "sampler": 0,
      "source": 0
    },
    {
      "sampler": 0,
      "source": 1
    },
    {
      "sampler": 0,
      "source": 2
    }
  ]
}
